<svg width="176" height="44" viewBox="0 0 176 44" fill="none" xmlns="http://www.w3.org/2000/svg">
<g clip-path="url(#clip0_3_190)">
<path d="M22.1432 0C9.92956 0 0 9.87264 0 22C0 34.1274 9.92956 44 22.1432 44C34.3569 44 44.2864 34.1347 44.2864 22C44.2864 9.86534 34.3495 0 22.1432 0ZM22.1432 5.22454C30.5598 5.22454 37.559 11.3758 38.8222 19.3877H5.4642C6.72742 11.3758 13.7266 5.22454 22.1432 5.22454ZM22.1432 38.7755C13.7266 38.7755 6.72742 32.6242 5.4642 24.6123H38.8222C37.559 32.6242 30.5598 38.7755 22.1432 38.7755Z" fill="url(#paint0_linear_3_190)"/>
<path d="M38.8222 24.6123H24.5228L16.3045 19.3877H38.8222V24.6123Z" fill="url(#paint1_linear_3_190)"/>
<path d="M5.4642 19.3877H18.3095L26.5278 24.6123H5.4642V19.3877Z" fill="url(#paint2_linear_3_190)"/>
<path d="M22.033 44C21.0048 44 15.9299 43.8614 11.3617 41.198C11.2148 41.1105 11.0606 41.0302 10.9137 40.9499C10.3555 40.6435 9.72391 40.2932 9.0923 39.7678L12.4487 35.7473C12.7131 35.9662 13.0729 36.1632 13.4842 36.3967C13.6605 36.4988 13.8441 36.5937 14.0204 36.7032C17.6852 38.8338 22.0404 38.7901 22.0845 38.7901H22.1506C26.0798 38.7901 29.2819 35.6086 29.2819 31.7048C29.2819 28.1367 26.682 25.7287 21.563 24.5539C14.0718 22.8318 9.76798 18.3735 9.76798 12.3171C9.75329 5.53101 15.2909 0.0218909 22.1065 3.97442e-07C22.6353 -0.0145933 26.3882 -0.0437806 30.4644 1.6126C30.6553 1.69287 30.9344 1.80962 31.14 1.89718C31.4926 2.80199 32.6677 5.7864 32.6677 5.7864C32.6677 5.7864 30.4937 6.13665 28.5401 6.46501C25.3307 5.12239 22.2607 5.21725 22.2313 5.21725H22.1506C18.2213 5.21725 15.0192 8.39867 15.0192 12.3025C15.0192 15.8706 17.6191 18.2786 22.7381 19.4534C30.2293 21.1755 34.5331 25.6338 34.5331 31.6902C34.5331 38.469 28.9881 43.9854 22.1726 43.9927C22.1432 43.9927 22.0918 43.9927 22.033 43.9927V44Z" fill="#00AAB5"/>
<path d="M67.5019 9.66833C67.2522 9.58076 66.9291 9.4859 66.5178 9.37645C66.1065 9.2743 65.6585 9.17214 65.1591 9.06998C64.6597 8.97513 64.1382 8.89486 63.5947 8.82919C63.0439 8.77081 62.5078 8.73433 61.9716 8.73433C60.9067 8.73433 60.1062 8.86567 59.57 9.12836C59.0265 9.39105 58.7621 9.86534 58.7621 10.5512C58.7621 10.9599 58.7768 11.2663 58.7989 11.4779C58.8209 11.6896 58.8943 11.8574 59.0118 11.996C59.1294 12.1274 59.3056 12.2368 59.5406 12.3244C59.783 12.4119 60.1062 12.5214 60.5101 12.6381C61.5016 12.8862 62.5004 13.1124 63.4992 13.3095C64.4981 13.5138 65.4088 13.7983 66.224 14.1705C67.0392 14.5426 67.7076 15.0607 68.229 15.7247C68.7505 16.396 69.0222 17.3154 69.0369 18.4975C69.0369 19.5191 68.868 20.3509 68.5301 20.993C68.1923 21.6352 67.7222 22.1386 67.12 22.5108C66.5178 22.8829 65.798 23.131 64.9534 23.2624C64.1088 23.3937 63.1834 23.4594 62.1773 23.4594C61.5603 23.4594 60.8993 23.4302 60.209 23.3645C59.5186 23.3061 58.8429 23.2113 58.1746 23.0872C57.5136 22.9632 56.8893 22.8245 56.3018 22.6786C55.7142 22.5327 55.2295 22.3575 54.8403 22.1605C54.9798 21.6352 55.112 21.1536 55.2369 20.7231C55.3617 20.2925 55.5012 19.8474 55.6628 19.3877C55.9272 19.4899 56.2798 19.6139 56.7131 19.7599C57.1464 19.8985 57.6531 20.0299 58.2407 20.1539C58.8282 20.2779 59.4745 20.3801 60.1796 20.4677C60.8847 20.5552 61.6338 20.599 62.4123 20.599C62.9117 20.599 63.3524 20.5844 63.7563 20.5625C64.1529 20.5333 64.4981 20.4604 64.7772 20.3363C65.0636 20.2123 65.2692 20.0153 65.4161 19.7453C65.5557 19.4753 65.6291 19.0886 65.6291 18.5997C65.6291 18.2275 65.5924 17.9284 65.5263 17.7022C65.4528 17.476 65.3353 17.2935 65.1664 17.1622C64.9975 17.0308 64.7772 16.9214 64.5054 16.8484C64.2337 16.7682 63.8958 16.6879 63.5066 16.6003C62.0157 16.2866 60.7525 15.9947 59.7096 15.7393C58.6667 15.4839 57.8221 15.1556 57.1684 14.7469C56.5221 14.3456 56.0521 13.8129 55.7583 13.1635C55.4645 12.5141 55.3176 11.6312 55.3176 10.5221C55.3176 9.74859 55.4792 9.06998 55.8097 8.48624C56.1402 7.90249 56.5882 7.42819 57.1611 7.04876C57.7339 6.66932 58.4023 6.38474 59.1514 6.18773C59.9005 5.99071 60.7084 5.89585 61.553 5.89585C62.1699 5.89585 62.8089 5.91775 63.4552 5.96153C64.1015 6.00531 64.7257 6.07098 65.328 6.15854C65.9302 6.2461 66.4957 6.35556 67.0172 6.47231C67.5386 6.59635 67.9866 6.74229 68.3612 6.92471L67.4872 9.64644L67.5019 9.66833Z" fill="#231F20"/>
<path d="M71.7323 14.6886C71.7323 12.7914 71.9599 11.259 72.4079 10.1061C72.8559 8.95324 73.4729 8.06302 74.244 7.44279C75.0152 6.81526 75.9185 6.40663 76.9541 6.20232C77.9896 5.99801 79.0986 5.89585 80.2884 5.89585C81.4782 5.89585 82.5872 5.99801 83.6228 6.20232C84.6583 6.40663 85.5617 6.81526 86.3328 7.44279C87.104 8.07032 87.7136 8.95324 88.1689 10.1061C88.6243 11.259 88.8446 12.7841 88.8446 14.6886C88.8446 16.593 88.6169 18.1181 88.1689 19.271C87.7209 20.4239 87.104 21.3141 86.3328 21.9343C85.5617 22.5619 84.6583 22.9705 83.6228 23.1748C82.5872 23.3791 81.4782 23.4813 80.2884 23.4813C79.0986 23.4813 77.9896 23.3791 76.9541 23.1748C75.9185 22.9705 75.0152 22.5619 74.244 21.9343C73.4729 21.3068 72.8633 20.4239 72.4079 19.271C71.9526 18.1181 71.7323 16.593 71.7323 14.6886ZM80.2884 8.69055C79.6127 8.69055 78.9738 8.71974 78.3789 8.78541C77.7767 8.84378 77.2479 9.06998 76.7852 9.44212C76.3225 9.82156 75.9626 10.4126 75.6982 11.2226C75.4338 12.0325 75.3016 13.1854 75.3016 14.6813C75.3016 16.1771 75.4338 17.33 75.6982 18.14C75.9626 18.9499 76.3298 19.541 76.7852 19.9204C77.2479 20.2998 77.7767 20.5187 78.3789 20.5771C78.9811 20.6355 79.6201 20.672 80.2884 20.672C80.9568 20.672 81.5737 20.6428 82.1759 20.5771C82.7782 20.5187 83.3069 20.2925 83.7696 19.9204C84.2323 19.541 84.5996 18.9499 84.8713 18.14C85.143 17.33 85.2826 16.1771 85.2826 14.6813C85.2826 13.1854 85.143 12.0325 84.8713 11.2226C84.5996 10.4126 84.225 9.82156 83.755 9.44212C83.2849 9.06269 82.7488 8.84378 82.1465 8.78541C81.5443 8.72703 80.9274 8.69055 80.2884 8.69055Z" fill="#231F20"/>
<path d="M96.2771 23.1821L90.2474 6.23151H94.0738L97.6578 17.87L98.1352 20.5333H98.2968L98.7742 17.87L102.358 6.23151H106.185L100.155 23.1821H96.2771Z" fill="#231F20"/>
<path d="M122.775 22.3648C122.034 22.7151 121.116 22.9997 120.029 23.2113C118.942 23.4229 117.774 23.525 116.533 23.525C115.218 23.525 114.043 23.4156 112.985 23.1967C111.928 22.9778 111.032 22.5473 110.29 21.9197C109.548 21.2849 108.968 20.3947 108.564 19.2418C108.16 18.0889 107.955 16.5784 107.955 14.7177C107.955 12.8571 108.16 11.3466 108.564 10.1937C108.968 9.0408 109.548 8.15058 110.29 7.51576C111.032 6.88093 111.935 6.45771 112.985 6.23881C114.036 6.0199 115.218 5.91045 116.533 5.91045C119.015 5.91045 121.006 6.2607 122.511 6.96849L121.637 9.69022C121.123 9.52969 120.425 9.33267 119.537 9.09917C118.648 8.85838 117.671 8.74163 116.584 8.74163C115.857 8.74163 115.181 8.79271 114.565 8.90216C113.948 9.00431 113.411 9.2597 112.956 9.66833C112.501 10.077 112.148 10.6753 111.891 11.4779C111.634 12.2806 111.509 13.3678 111.509 14.7396C111.509 16.1114 111.634 17.2279 111.891 18.0232C112.148 18.8259 112.501 19.4242 112.956 19.8182C113.411 20.2123 113.94 20.4677 114.565 20.5698C115.181 20.672 115.857 20.7304 116.584 20.7304C117.113 20.7304 117.649 20.6939 118.178 20.6136C118.707 20.5333 119.206 20.4385 119.669 20.3363C120.132 20.2342 120.557 20.1174 120.947 19.9934C121.336 19.8693 121.652 19.7672 121.902 19.6796L122.775 22.4013V22.3648Z" fill="#231F20"/>
<path d="M124.318 14.6886C124.318 12.7914 124.545 11.259 124.993 10.1061C125.449 8.95324 126.058 8.06302 126.83 7.44279C127.601 6.81526 128.504 6.40663 129.54 6.20232C130.575 5.99801 131.684 5.89585 132.874 5.89585C134.064 5.89585 135.173 5.99801 136.208 6.20232C137.244 6.40663 138.147 6.81526 138.918 7.44279C139.69 8.07032 140.299 8.95324 140.754 10.1061C141.202 11.259 141.43 12.7841 141.43 14.6886C141.43 16.593 141.202 18.1181 140.754 19.271C140.299 20.4239 139.69 21.3141 138.918 21.9343C138.147 22.5619 137.244 22.9705 136.208 23.1748C135.173 23.3791 134.064 23.4813 132.874 23.4813C131.684 23.4813 130.575 23.3791 129.54 23.1748C128.504 22.9705 127.601 22.5619 126.83 21.9343C126.058 21.3068 125.449 20.4239 124.993 19.271C124.545 18.1181 124.318 16.593 124.318 14.6886ZM132.874 8.69055C132.198 8.69055 131.567 8.71974 130.964 8.78541C130.362 8.84378 129.833 9.06998 129.371 9.44212C128.908 9.82156 128.548 10.4126 128.284 11.2226C128.019 12.0325 127.887 13.1854 127.887 14.6813C127.887 16.1771 128.019 17.33 128.284 18.14C128.548 18.9499 128.915 19.541 129.371 19.9204C129.833 20.2998 130.362 20.5187 130.964 20.5771C131.567 20.6355 132.206 20.672 132.874 20.672C133.542 20.672 134.159 20.6428 134.761 20.5771C135.364 20.5187 135.893 20.2925 136.355 19.9204C136.818 19.541 137.185 18.9499 137.457 18.14C137.729 17.33 137.868 16.1771 137.868 14.6813C137.868 13.1854 137.729 12.0325 137.457 11.2226C137.185 10.4126 136.811 9.82156 136.341 9.44212C135.87 9.06269 135.334 8.84378 134.732 8.78541C134.13 8.72703 133.513 8.69055 132.874 8.69055Z" fill="#231F20"/>
<path d="M155.326 23.1821L148.444 11.9887V23.1821H145.044V6.23881H148.76L155.641 17.3811V6.23881H159.013V23.1894H155.318L155.326 23.1821Z" fill="#231F20"/>
<path d="M166.908 23.1821V9.06269H161.671L161.936 6.23881H175.993L175.728 9.06269H170.411V23.1821H166.9H166.908Z" fill="#231F20"/>
<path d="M54.8549 37.1045V28.5745H55.8024V36.331H60.9067L60.7745 37.1045H54.8476H54.8549Z" fill="#231F20"/>
<path d="M61.8394 32.8285C61.8394 31.8726 61.9496 31.1065 62.1773 30.5227C62.4049 29.9463 62.7134 29.4939 63.1026 29.1801C63.4919 28.8663 63.9472 28.6547 64.4687 28.5526C64.9901 28.4504 65.5483 28.3993 66.1432 28.3993C66.7381 28.3993 67.2963 28.4504 67.8177 28.5526C68.3392 28.6547 68.7945 28.8663 69.1838 29.1801C69.573 29.4939 69.8815 29.939 70.1092 30.5227C70.3368 31.1065 70.447 31.8726 70.447 32.8285C70.447 33.7844 70.3368 34.5506 70.1092 35.1343C69.8815 35.7181 69.573 36.1632 69.1838 36.477C68.7945 36.7907 68.3392 37.0023 67.8177 37.1045C67.2963 37.2066 66.7381 37.2577 66.1432 37.2577C65.5483 37.2577 64.9901 37.2066 64.4687 37.1045C63.9472 37.0023 63.4919 36.798 63.1026 36.477C62.7134 36.1632 62.4049 35.7181 62.1773 35.1343C61.9496 34.5579 61.8394 33.7844 61.8394 32.8285ZM66.1432 29.1509C65.7099 29.1509 65.2839 29.1728 64.8873 29.2093C64.4834 29.2458 64.1309 29.3844 63.8297 29.6179C63.5286 29.8514 63.2863 30.2163 63.1026 30.7124C62.919 31.2159 62.8309 31.9164 62.8309 32.8285C62.8309 33.4415 62.875 33.9522 62.9558 34.3755C63.0439 34.7987 63.1541 35.1416 63.3009 35.4116C63.4478 35.6816 63.6241 35.8932 63.8297 36.0391C64.0354 36.1924 64.2631 36.3018 64.5054 36.3675C64.7478 36.4332 65.0122 36.4769 65.2913 36.4842C65.5703 36.4988 65.8494 36.5061 66.1506 36.5061C66.4517 36.5061 66.7161 36.5061 66.9952 36.4842C67.2742 36.4697 67.5313 36.4332 67.7737 36.3675C68.016 36.3018 68.2437 36.1924 68.4567 36.0391C68.6623 35.8859 68.8459 35.6816 68.9928 35.4116C69.1397 35.1416 69.2572 34.7987 69.338 34.3755C69.4261 33.9522 69.4629 33.4415 69.4629 32.8285C69.4629 31.9164 69.3674 31.2086 69.1838 30.7124C68.9928 30.209 68.7505 29.8441 68.442 29.6179C68.1335 29.3844 67.781 29.2531 67.3844 29.2093C66.9878 29.1728 66.5765 29.1509 66.1506 29.1509H66.1432Z" fill="#231F20"/>
<path d="M78.9371 33.0693H76.1976L76.3298 32.3104H79.8478V36.5061C79.6715 36.6156 79.4512 36.7105 79.1868 36.798C78.9224 36.8856 78.636 36.9658 78.3275 37.0315C78.019 37.0972 77.6959 37.1483 77.3654 37.1847C77.0349 37.2212 76.7044 37.2358 76.3812 37.2358C75.7056 37.2358 75.1033 37.1847 74.5819 37.0753C74.0604 36.9658 73.6198 36.7542 73.2746 36.4405C72.922 36.1194 72.6577 35.667 72.474 35.0833C72.2904 34.4995 72.2023 33.7333 72.2023 32.7847C72.2023 31.8362 72.3051 31.0919 72.5108 30.5154C72.7164 29.939 73.0028 29.4939 73.3774 29.1874C73.752 28.8809 74.2073 28.6693 74.7361 28.5599C75.2649 28.4504 75.8598 28.3993 76.5208 28.3993C77.1451 28.3993 77.7179 28.4504 78.2467 28.5453C78.7755 28.6401 79.2235 28.7788 79.5981 28.9539L79.1574 29.6544C79.0325 29.6106 78.8783 29.5595 78.6874 29.5012C78.5038 29.4428 78.2908 29.3917 78.0631 29.3333C77.8354 29.2823 77.5931 29.2385 77.336 29.202C77.079 29.1655 76.8146 29.1509 76.5502 29.1509C76.0654 29.1509 75.6248 29.1801 75.2135 29.2458C74.8022 29.3041 74.4497 29.4574 74.1486 29.6982C73.8474 29.939 73.6124 30.2965 73.4435 30.7781C73.2746 31.2597 73.1864 31.9237 73.1864 32.7629C73.1864 33.5582 73.2452 34.2003 73.3627 34.6892C73.4802 35.1781 73.6712 35.5503 73.9356 35.8129C74.2 36.0756 74.5525 36.2507 74.9858 36.3383C75.4191 36.4259 75.9479 36.4697 76.5869 36.4697C76.7925 36.4697 77.0055 36.4551 77.2258 36.4259C77.4462 36.3967 77.6665 36.3602 77.8721 36.3164C78.0778 36.2726 78.2834 36.2216 78.467 36.1559C78.6506 36.0975 78.8122 36.0318 78.9371 35.9735V33.062V33.0693Z" fill="#231F20"/>
<path d="M82.6313 37.1045V28.5745H83.5934V37.1045H82.6313Z" fill="#231F20"/>
<path d="M92.1275 29.6398C92.0027 29.596 91.8411 29.5449 91.6354 29.4939C91.4298 29.4428 91.2021 29.3917 90.9524 29.3406C90.7027 29.2896 90.4383 29.2531 90.1666 29.2239C89.8875 29.1947 89.6158 29.1801 89.3514 29.1801C88.5582 29.1801 87.9559 29.2896 87.5446 29.5158C87.1334 29.742 86.9277 30.1579 86.9277 30.7562C86.9277 31.0408 86.9424 31.2597 86.9718 31.4056C87.0012 31.5589 87.0746 31.6756 87.1848 31.7705C87.2949 31.8653 87.4639 31.9383 87.6842 31.9967C87.9045 32.0551 88.213 32.1207 88.6096 32.201C89.109 32.3105 89.6084 32.4053 90.1152 32.4856C90.6219 32.5731 91.0773 32.6972 91.4886 32.8577C91.8998 33.0182 92.2377 33.2517 92.4947 33.5436C92.7591 33.8355 92.8913 34.2368 92.906 34.7549C92.906 35.2657 92.8179 35.6889 92.649 36.01C92.4801 36.331 92.245 36.5864 91.9439 36.7761C91.6428 36.9585 91.2756 37.0899 90.8569 37.1556C90.431 37.2212 89.9683 37.2577 89.4615 37.2577C89.1531 37.2577 88.8226 37.2431 88.47 37.2139C88.1248 37.1847 87.7797 37.1337 87.4492 37.0753C87.1113 37.0169 86.8029 36.9439 86.5091 36.871C86.2153 36.798 85.973 36.7105 85.7747 36.6156C85.8481 36.4842 85.9142 36.3602 85.973 36.2435C86.0317 36.1267 86.1052 36.01 86.1859 35.8859C86.3181 35.937 86.4944 36.0027 86.7147 36.0756C86.9351 36.1486 87.1921 36.2143 87.4859 36.2726C87.7797 36.3383 88.1028 36.3894 88.4627 36.4332C88.8226 36.477 89.1971 36.4988 89.5864 36.4988C89.9756 36.4988 90.2988 36.4915 90.5926 36.4697C90.8937 36.4551 91.1434 36.3894 91.3564 36.2872C91.5693 36.1851 91.7236 36.0172 91.8411 35.791C91.9513 35.5648 92.01 35.2438 92.01 34.8279C92.01 34.5652 91.9806 34.3536 91.9145 34.2003C91.8558 34.0471 91.753 33.9231 91.6061 33.8282C91.4665 33.7333 91.2682 33.6604 91.0332 33.6093C90.7908 33.5582 90.4971 33.4925 90.1372 33.4269C89.3881 33.2882 88.7491 33.1569 88.2277 33.0474C87.6989 32.938 87.2729 32.792 86.9498 32.6242C86.6266 32.4564 86.3916 32.2229 86.2447 31.931C86.0978 31.6391 86.0244 31.2524 86.0244 30.7708C86.0244 30.3841 86.1052 30.0411 86.2741 29.7493C86.4356 29.4574 86.6633 29.2166 86.9571 29.0269C87.2435 28.8371 87.5814 28.6912 87.9633 28.5964C88.3452 28.5015 88.7418 28.4504 89.1751 28.4504C89.4836 28.4504 89.8067 28.465 90.1299 28.4869C90.453 28.5088 90.7688 28.5453 91.0699 28.5891C91.3711 28.6328 91.6575 28.6839 91.9219 28.7496C92.1863 28.8153 92.4066 28.8882 92.5976 28.9758L92.1569 29.6763L92.1275 29.6398Z" fill="#231F20"/>
<path d="M97.107 37.1045V29.3333H94.0738L94.206 28.5745H101.279L101.146 29.3333H98.0691V37.1045H97.107Z" fill="#231F20"/>
<path d="M103.35 37.1045V28.5745H104.312V37.1045H103.35Z" fill="#231F20"/>
<path d="M114.3 36.6959C113.926 36.871 113.463 37.0169 112.919 37.1191C112.369 37.2285 111.788 37.2796 111.164 37.2796C110.503 37.2796 109.908 37.2212 109.379 37.1118C108.851 37.0023 108.395 36.7834 108.021 36.4697C107.646 36.1486 107.36 35.7035 107.154 35.1197C106.948 34.5433 106.846 33.7771 106.846 32.8431C106.846 31.9091 106.948 31.143 107.154 30.5665C107.36 29.9901 107.646 29.5376 108.021 29.2166C108.395 28.8955 108.851 28.6839 109.379 28.5745C109.908 28.465 110.503 28.4066 111.164 28.4066C112.413 28.4066 113.411 28.5818 114.175 28.9393L113.735 29.6398C113.478 29.5522 113.125 29.4501 112.677 29.3333C112.229 29.2166 111.737 29.1582 111.193 29.1582C110.709 29.1582 110.268 29.1947 109.857 29.2604C109.446 29.326 109.093 29.4866 108.792 29.7347C108.491 29.9828 108.256 30.3549 108.087 30.8438C107.918 31.3327 107.83 32.004 107.83 32.8431C107.83 33.6823 107.918 34.3609 108.087 34.8571C108.256 35.3459 108.491 35.7181 108.792 35.9589C109.093 36.1997 109.446 36.3602 109.857 36.4259C110.268 36.4915 110.716 36.528 111.193 36.528C111.458 36.528 111.73 36.5061 111.994 36.4697C112.258 36.4332 112.508 36.3821 112.743 36.331C112.978 36.2799 113.191 36.2216 113.382 36.1559C113.58 36.0975 113.742 36.0391 113.867 35.9954L114.307 36.6959H114.3Z" fill="#231F20"/>
<path d="M122.004 29.6398C121.879 29.596 121.718 29.5449 121.512 29.4939C121.307 29.4428 121.079 29.3917 120.829 29.3406C120.58 29.2896 120.315 29.2531 120.043 29.2239C119.764 29.1947 119.493 29.1801 119.228 29.1801C118.435 29.1801 117.833 29.2896 117.421 29.5158C117.01 29.742 116.805 30.1579 116.805 30.7562C116.805 31.0408 116.819 31.2597 116.849 31.4056C116.878 31.5589 116.951 31.6756 117.062 31.7705C117.172 31.8653 117.341 31.9383 117.561 31.9967C117.781 32.0551 118.09 32.1207 118.486 32.201C118.986 32.3105 119.485 32.4053 119.992 32.4856C120.499 32.5731 120.954 32.6972 121.365 32.8577C121.777 33.0182 122.114 33.2517 122.372 33.5436C122.636 33.8355 122.768 34.2368 122.783 34.7549C122.783 35.2657 122.695 35.6889 122.526 36.01C122.357 36.331 122.122 36.5864 121.821 36.7761C121.52 36.9585 121.152 37.0899 120.734 37.1556C120.308 37.2212 119.845 37.2577 119.338 37.2577C119.03 37.2577 118.699 37.2431 118.347 37.2139C118.002 37.1847 117.656 37.1337 117.326 37.0753C116.988 37.0169 116.68 36.9439 116.386 36.871C116.092 36.798 115.85 36.7105 115.651 36.6156C115.725 36.4842 115.791 36.3602 115.85 36.2435C115.909 36.1267 115.982 36.01 116.063 35.8859C116.195 35.937 116.371 36.0027 116.592 36.0756C116.812 36.1486 117.069 36.2143 117.363 36.2726C117.656 36.3383 117.98 36.3894 118.339 36.4332C118.699 36.477 119.074 36.4988 119.463 36.4988C119.852 36.4988 120.176 36.4915 120.469 36.4697C120.77 36.4551 121.02 36.3894 121.233 36.2872C121.446 36.1851 121.6 36.0172 121.718 35.791C121.828 35.5648 121.887 35.2438 121.887 34.8279C121.887 34.5652 121.857 34.3536 121.791 34.2003C121.733 34.0471 121.63 33.9231 121.483 33.8282C121.343 33.7333 121.145 33.6604 120.91 33.6093C120.668 33.5582 120.374 33.4925 120.014 33.4269C119.265 33.2882 118.626 33.1569 118.104 33.0474C117.576 32.938 117.15 32.792 116.827 32.6242C116.503 32.4564 116.268 32.2229 116.121 31.931C115.975 31.6464 115.901 31.2524 115.901 30.7708C115.901 30.3841 115.982 30.0411 116.151 29.7493C116.312 29.4574 116.54 29.2166 116.834 29.0269C117.12 28.8371 117.458 28.6912 117.84 28.5964C118.222 28.5015 118.619 28.4504 119.052 28.4504C119.36 28.4504 119.684 28.465 120.007 28.4869C120.33 28.5088 120.646 28.5453 120.947 28.5891C121.248 28.6328 121.534 28.6839 121.799 28.7496C122.063 28.8153 122.283 28.8882 122.474 28.9758L122.034 29.6763L122.004 29.6398Z" fill="#231F20"/>
</g>
<defs>
<linearGradient id="paint0_linear_3_190" x1="22.1432" y1="44" x2="22.1432" y2="0" gradientUnits="userSpaceOnUse">
<stop offset="0.63" stop-color="#00AAB5"/>
<stop offset="0.95" stop-color="#004150"/>
</linearGradient>
<linearGradient id="paint1_linear_3_190" x1="23.2449" y1="26.2905" x2="34.4307" y2="15.0319" gradientUnits="userSpaceOnUse">
<stop offset="0.44" stop-color="#004150" stop-opacity="0.8"/>
<stop offset="0.79" stop-color="#00AAB5" stop-opacity="0"/>
</linearGradient>
<linearGradient id="paint2_linear_3_190" x1="19.9473" y1="18.0743" x2="9.48385" y2="28.6132" gradientUnits="userSpaceOnUse">
<stop offset="0.44" stop-color="#004150" stop-opacity="0.8"/>
<stop offset="0.84" stop-color="#00AAB5" stop-opacity="0"/>
</linearGradient>
<clipPath id="clip0_3_190">
<rect width="176" height="44" fill="white"/>
</clipPath>
</defs>
</svg>
