<svg width="36" height="35" viewBox="0 0 36 35" fill="none" xmlns="http://www.w3.org/2000/svg">
<path d="M17.6127 0.00244141C7.89795 0.00244141 0 7.85512 0 17.5012C0 27.1473 7.89795 35 17.6127 35C27.3274 35 35.2253 27.1531 35.2253 17.5012C35.2253 7.84932 27.3215 0.00244141 17.6127 0.00244141ZM17.6127 4.15803C24.3072 4.15803 29.8744 9.05072 30.8791 15.4234H4.34621C5.35098 9.05072 10.9181 4.15803 17.6127 4.15803ZM17.6127 30.8444C10.9181 30.8444 5.35098 25.9517 4.34621 19.579H30.8791C29.8744 25.9517 24.3072 30.8444 17.6127 30.8444Z" fill="url(#paint0_linear_36_461)"/>
<path d="M30.8791 19.5792H19.5054L12.9685 15.4236H30.8791V19.5792Z" fill="url(#paint1_linear_36_461)"/>
<path d="M4.34621 15.4236H14.5633L21.1002 19.5792H4.34621V15.4236Z" fill="url(#paint2_linear_36_461)"/>
<path d="M17.5251 35C16.7072 35 12.6706 34.8897 9.03709 32.7713C8.92026 32.7017 8.79758 32.6378 8.68075 32.574C8.23678 32.3302 7.73439 32.0516 7.23201 31.6337L9.90166 28.4358C10.112 28.6099 10.3982 28.7666 10.7253 28.9523C10.8655 29.0336 11.0116 29.109 11.1518 29.1961C14.0668 30.8908 17.5309 30.856 17.5659 30.856H17.6185C20.7438 30.856 23.2908 28.3255 23.2908 25.2204C23.2908 22.3823 21.2228 20.467 17.1512 19.5326C11.1927 18.1629 7.76944 14.6167 7.76944 9.79946C7.75776 4.40184 12.1624 0.019891 17.5835 0.00247926C18.0041 -0.00912854 20.9892 -0.0323441 24.2313 1.28514C24.3832 1.34898 24.6052 1.44185 24.7687 1.51149C25.0491 2.23118 25.9838 4.60497 25.9838 4.60497C25.9838 4.60497 24.2547 4.88356 22.7008 5.14473C20.148 4.07682 17.7061 4.15227 17.6828 4.15227H17.6185C14.4932 4.15227 11.9462 6.68277 11.9462 9.78786C11.9462 12.626 14.0142 14.5413 18.0859 15.4757C24.0444 16.8454 27.4676 20.3916 27.4676 25.2088C27.4676 30.6006 23.0571 34.9884 17.636 34.9942C17.6127 34.9942 17.5718 34.9942 17.5251 34.9942V35Z" fill="#00AAB5"/>
<defs>
<linearGradient id="paint0_linear_36_461" x1="17.6127" y1="35" x2="17.6127" y2="0.00244141" gradientUnits="userSpaceOnUse">
<stop offset="0.63" stop-color="#00AAB5"/>
<stop offset="0.95" stop-color="#004150"/>
</linearGradient>
<linearGradient id="paint1_linear_36_461" x1="18.4889" y1="20.9141" x2="27.3861" y2="11.959" gradientUnits="userSpaceOnUse">
<stop offset="0.44" stop-color="#004150" stop-opacity="0.8"/>
<stop offset="0.79" stop-color="#00AAB5" stop-opacity="0"/>
</linearGradient>
<linearGradient id="paint2_linear_36_461" x1="15.866" y1="14.3789" x2="7.54343" y2="22.7615" gradientUnits="userSpaceOnUse">
<stop offset="0.44" stop-color="#004150" stop-opacity="0.8"/>
<stop offset="0.84" stop-color="#00AAB5" stop-opacity="0"/>
</linearGradient>
</defs>
</svg>
