<svg xmlns="http://www.w3.org/2000/svg">
  <symbol id="arrow-right" width="48" height="8" viewBox="0 0 48 8" fill="none">
    <path d="M47.3536 4.35356C47.5488 4.1583 47.5488 3.84171 47.3536 3.64645L44.1716 0.46447C43.9763 0.269208 43.6597 0.269208 43.4645 0.46447C43.2692 0.659732 43.2692 0.976315 43.4645 1.17158L46.2929 4L43.4645 6.82843C43.2692 7.02369 43.2692 7.34028 43.4645 7.53554C43.6597 7.7308 43.9763 7.7308 44.1716 7.53554L47.3536 4.35356ZM0 4L-3.25543e-09 4.5L47 4.5L47 4L47 3.5L3.25477e-09 3.5L0 4Z" fill="currentColor"/>
  </symbol>

  <symbol id="arrow-right-white" width="75" height="8" viewBox="0 0 75 8" fill="none">
    <path d="M74.3535 4.35356C74.5488 4.1583 74.5488 3.84172 74.3535 3.64645L71.1715 0.464472C70.9762 0.26921 70.6597 0.26921 70.4644 0.464472C70.2691 0.659734 70.2691 0.976317 70.4644 1.17158L73.2928 4.00001L70.4644 6.82843C70.2691 7.0237 70.2691 7.34028 70.4644 7.53554C70.6597 7.7308 70.9762 7.7308 71.1715 7.53554L74.3535 4.35356ZM-6.10352e-05 4L-6.10789e-05 4.5L73.9999 4.50001L73.9999 4.00001L73.9999 3.50001L-6.09914e-05 3.5L-6.10352e-05 4Z" fill="white"/>
  </symbol>

  <symbol id="whatsapp" width="30" height="30" viewBox="0 0 30 30" fill="none">
    <g clip-path="url(#clip0_39_34)">
      <path d="M0 30.0001L2.57258 22.2827C1.26722 20.0871 0.515637 17.525 0.515637 14.7853C0.515637 6.66743 7.09664 0.0864258 15.2148 0.0864258C23.333 0.0864258 29.9137 6.66743 29.9137 14.7853C29.9137 22.9031 23.3327 29.4841 15.2148 29.4841C12.7447 29.4841 10.4189 28.872 8.37583 27.7962L0 30.0001Z" fill="currentColor"/>
      <path d="M24.5928 19.6774C23.9141 18.3948 21.4111 16.9279 21.4111 16.9279C20.845 16.6052 20.1614 16.5689 19.8384 17.1444C19.8384 17.1444 19.0251 18.1196 18.8183 18.2598C17.8734 18.9 16.9981 18.8753 16.1149 17.9917L14.0617 15.9385L12.0085 13.8853C11.1249 13.0017 11.1002 12.1268 11.7404 11.1819C11.8806 10.9751 12.8558 10.1618 12.8558 10.1618C13.4312 9.83837 13.3953 9.15559 13.0723 8.5891C13.0723 8.5891 11.6054 6.08608 10.3228 5.40741C9.77728 5.11874 9.10722 5.2197 8.67085 5.65607L7.76409 6.56283C4.88789 9.43902 6.30393 12.6865 9.1805 15.5627L11.8092 18.1914L14.4378 20.8201C17.314 23.6963 20.5615 25.1127 23.4377 22.2365L24.3445 21.3297C24.7809 20.8922 24.8814 20.2225 24.5924 19.6774H24.5928Z" fill="white"/>
    </g>
    <defs>
      <clipPath id="clip0_39_34">
        <rect width="29.9137" height="29.9137" fill="white" transform="translate(0 0.0864258)"/>
      </clipPath>
    </defs>
  </symbol>

  <symbol id="vk" width="30" height="30" viewBox="0 0 30 30" fill="none">
    <g clip-path="url(#clip0_39_37)">
      <path d="M15 30.0001C23.2604 30.0001 29.9568 23.3037 29.9568 15.0433C29.9568 6.78283 23.2604 0.0864258 15 0.0864258C6.73957 0.0864258 0.0431671 6.78283 0.0431671 15.0433C0.0431671 23.3037 6.73957 30.0001 15 30.0001Z" fill="currentColor"/>
      <mask id="mask0_39_37" style="mask-type:luminance" maskUnits="userSpaceOnUse" x="0" y="0" width="30" height="30">
        <path d="M29.9417 0.108643H0.0654297V29.9849H29.9417V0.108643Z" fill="white"/>
      </mask>
      <g mask="url(#mask0_39_37)">
        <path d="M15.9572 21.6317C9.14441 21.6317 5.26311 16.9651 5.10606 9.19507H8.51622C8.6284 14.8936 11.1411 17.3092 13.1379 17.8102V9.19507H16.3461V14.1084C18.3129 13.899 20.377 11.6555 21.0725 9.19507H24.2807C23.7423 12.2313 21.5062 14.4748 19.9133 15.3947C21.5062 16.1425 24.0564 18.0944 25.0286 21.6317H21.4913C20.7285 19.2685 18.8364 17.4363 16.3386 17.1895V21.6317H15.9498H15.9572Z" fill="white"/>
      </g>
    </g>
    <defs>
      <clipPath id="clip0_39_37">
        <rect width="29.9137" height="29.9137" fill="white" transform="translate(0.0431671 0.0864258)"/>
      </clipPath>
    </defs>
  </symbol>

  <symbol id="telegram" width="30" height="30" viewBox="0 0 30 30" fill="none">
    <g clip-path="url(#clip0_39_44)">
      <path d="M15.0432 30.0001C23.3036 30.0001 30 23.3037 30 15.0433C30 6.78283 23.3036 0.0864258 15.0432 0.0864258C6.78274 0.0864258 0.0863342 6.78283 0.0863342 15.0433C0.0863342 23.3037 6.78274 30.0001 15.0432 30.0001Z" fill="currentColor"/>
      <path fill-rule="evenodd" clip-rule="evenodd" d="M6.84863 14.8801C11.2088 12.9855 14.1095 11.7255 15.5689 11.1182C19.7115 9.38681 20.5908 9.08768 21.1437 9.07861C21.2706 9.07861 21.5426 9.10581 21.733 9.25084C21.878 9.37775 21.9233 9.54092 21.9414 9.65876C21.9596 9.7766 21.9868 10.0485 21.9686 10.248C21.742 12.6139 20.7721 18.3519 20.2735 20.9988C20.065 22.1228 19.6481 22.4944 19.2492 22.5307C18.379 22.6032 17.7173 21.9596 16.8833 21.4067C15.5599 20.5455 14.8256 20.0107 13.5475 19.1677C12.0699 18.1978 13.0217 17.6629 13.8738 16.7927C14.1004 16.5661 17.9258 13.0852 17.9983 12.768C18.0073 12.7317 18.0073 12.5776 17.9258 12.5051C17.8351 12.4326 17.7173 12.4598 17.6176 12.4779C17.4816 12.5051 15.3876 13.9011 11.3176 16.6477C10.7193 17.0556 10.1845 17.255 9.69497 17.246C9.16015 17.2369 8.13583 16.9468 7.36532 16.7021C6.43166 16.4029 5.68835 16.2398 5.74273 15.714C5.77899 15.4421 6.15065 15.1701 6.84863 14.8801Z" fill="white"/>
    </g>
    <defs>
      <clipPath id="clip0_39_44">
        <rect width="29.9137" height="29.9137" fill="white" transform="translate(0.0863342 0.0864258)"/>
      </clipPath>
    </defs>
  </symbol>

  <symbol id="whatsapp_mobile" width="26" height="26" viewBox="0 0 26 26" fill="none">
    <g clip-path="url(#clip0_186_1222)">
      <path d="M0 26L2.236 19.2923C1.10143 17.3839 0.448175 15.157 0.448175 12.7758C0.448175 5.72 6.16817 0 13.2242 0C20.2803 0 26 5.72 26 12.7758C26 19.8315 20.28 25.5515 13.2242 25.5515C11.0773 25.5515 9.0558 25.0195 7.28 24.0844L0 26Z" fill="#2CB742"/>
      <path d="M21.3753 17.0277C20.7854 15.913 18.6098 14.638 18.6098 14.638C18.1178 14.3575 17.5237 14.326 17.2429 14.8262C17.2429 14.8262 16.536 15.6738 16.3563 15.7956C15.535 16.352 14.7742 16.3306 14.0065 15.5626L12.222 13.7781L10.4374 11.9935C9.66941 11.2255 9.64796 10.465 10.2044 9.64373C10.3262 9.464 11.1738 8.75713 11.1738 8.75713C11.674 8.476 11.6428 7.88255 11.362 7.39018C11.362 7.39018 10.087 5.21463 8.97229 4.62475C8.49811 4.37385 7.91571 4.4616 7.53644 4.84088L6.74831 5.629C4.24841 8.1289 5.47919 10.9515 7.97941 13.4514L10.2642 15.7362L12.5489 18.0209C15.0488 20.5208 17.8714 21.7519 20.3713 19.252L21.1595 18.4639C21.5387 18.0836 21.6262 17.5016 21.3749 17.0277H21.3753Z" fill="white"/>
    </g>
    <defs>
      <clipPath id="clip0_186_1222">
        <rect width="26" height="26" fill="white"/>
      </clipPath>
    </defs>
  </symbol>

  <symbol id="arrow-bottom" width="8" height="30" viewBox="0 0 8 30" fill="none"
    >
    <path d="M3.64645 29.2128C3.84171 29.408 4.15829 29.408 4.35355 29.2128L7.53553 26.0308C7.73079 25.8355 7.73079 25.5189 7.53553 25.3237C7.34027 25.1284 7.02369 25.1284 6.82843 25.3237L4 28.1521L1.17157 25.3237C0.97631 25.1284 0.659727 25.1284 0.464465 25.3237C0.269203 25.5189 0.269203 25.8355 0.464465 26.0308L3.64645 29.2128ZM4 0L3.5 -2.18557e-08L3.5 28.8592L4 28.8592L4.5 28.8592L4.5 2.18557e-08L4 0Z" fill="#00AAB5"/>
  </symbol>

</svg>